<svg xmlns="http://www.w3.org/2000/svg" xmlns:xlink="http://www.w3.org/1999/xlink" width="1200" zoomAndPan="magnify" viewBox="0 0 900 899.99999" height="1200" preserveAspectRatio="xMidYMid meet" version="1.2"><defs><clipPath id="782907d8f8"><path d="M 23.824219 286.015625 L 357.574219 286.015625 L 357.574219 613.765625 L 23.824219 613.765625 Z M 23.824219 286.015625 "/></clipPath><clipPath id="2d0abe8ba1"><rect x="0" width="510" y="0" height="117"/></clipPath></defs><g id="7d3c3789e5"><g clip-rule="nonzero" clip-path="url(#782907d8f8)"><path style=" stroke:none;fill-rule:nonzero;fill:#000000;fill-opacity:1;" d="M 195.660156 330.207031 C 195.660156 306.316406 215.054688 289.1875 248.878906 289.1875 C 287.214844 289.1875 319.6875 310.824219 319.6875 351.847656 L 323.746094 351.847656 L 323.746094 306.316406 L 319.6875 306.316406 C 319.6875 313.53125 318.785156 317.136719 316.53125 317.136719 C 315.179688 317.136719 312.921875 315.785156 309.316406 311.273438 C 295.785156 295.949219 272.78125 286.03125 246.625 286.03125 C 202.875 286.03125 171.304688 313.980469 171.304688 347.789062 C 171.304688 367.171875 181.226562 382.5 197.914062 395.574219 L 197.914062 443.808594 L 112.222656 443.808594 C 100.042969 443.808594 72.53125 443.808594 72.53125 424.875 L 72.53125 373.03125 C 72.53125 349.140625 77.945312 339.675781 93.28125 339.675781 L 93.28125 338.773438 L 23.824219 338.773438 L 23.824219 339.675781 C 39.15625 339.675781 45.019531 349.140625 45.019531 373.03125 L 45.019531 526.75 C 45.019531 550.191406 39.15625 559.660156 23.824219 559.660156 L 23.824219 561.011719 L 93.28125 561.011719 L 93.28125 559.660156 C 77.945312 559.660156 72.53125 550.191406 72.53125 526.75 L 72.53125 436.144531 C 77.496094 455.976562 99.144531 458.230469 116.730469 458.230469 L 146.5 458.230469 C 135.675781 472.65625 129.8125 491.140625 129.8125 510.972656 C 129.8125 568.222656 180.324219 613.753906 246.625 613.753906 C 312.472656 613.753906 357.574219 569.125 357.574219 504.210938 C 357.574219 457.332031 334.121094 429.382812 268.722656 399.179688 C 217.757812 375.285156 195.660156 355 195.660156 330.207031 Z M 224.976562 411.800781 C 229.9375 414.054688 234.445312 416.308594 239.859375 418.113281 C 301.195312 443.808594 333.21875 479.871094 333.21875 523.597656 C 333.21875 569.574219 298.039062 602.03125 244.371094 602.03125 C 183.933594 602.03125 137.027344 561.460938 137.027344 507.820312 C 137.027344 489.335938 142.441406 471.753906 151.910156 458.230469 L 197.914062 458.230469 L 197.914062 526.75 C 197.914062 550.191406 192.050781 559.660156 177.167969 559.660156 L 177.167969 561.011719 L 246.625 561.011719 L 246.625 559.660156 C 231.289062 559.660156 224.976562 550.191406 224.976562 526.75 L 224.976562 458.230469 L 237.605469 458.230469 C 256.546875 458.230469 282.707031 460.9375 282.707031 486.179688 C 282.707031 490.6875 281.804688 496.546875 279.546875 501.054688 L 281.804688 501.054688 C 285.410156 495.648438 286.765625 489.335938 286.765625 482.574219 C 286.765625 456.878906 261.957031 443.808594 238.957031 443.808594 L 224.976562 443.808594 Z M 224.976562 411.800781 "/></g><g transform="matrix(1,0,0,1,373,402)"><g clip-path="url(#2d0abe8ba1)"><g style="fill:#000000;fill-opacity:0.4;"><g transform="translate(3.955185, 95.42358)"><path style="stroke:none" d="M 5.421875 0 L 5.421875 -1.609375 C 7.347656 -2.234375 8.597656 -3.523438 9.171875 -5.484375 C 9.753906 -7.453125 10.046875 -10.515625 10.046875 -14.671875 L 10.046875 -66.171875 C 10.046875 -70.328125 9.753906 -73.382812 9.171875 -75.34375 C 8.597656 -77.3125 7.347656 -78.601562 5.421875 -79.21875 L 5.421875 -80.84375 L 26.90625 -80.84375 L 26.90625 -79.21875 C 24.976562 -78.601562 23.722656 -77.3125 23.140625 -75.34375 C 22.566406 -73.382812 22.28125 -70.328125 22.28125 -66.171875 L 22.28125 -43.890625 L 62.484375 -43.890625 L 62.484375 -66.171875 C 62.484375 -70.328125 62.191406 -73.382812 61.609375 -75.34375 C 61.035156 -77.3125 59.785156 -78.601562 57.859375 -79.21875 L 57.859375 -80.84375 L 79.34375 -80.84375 L 79.34375 -79.21875 C 77.414062 -78.601562 76.160156 -77.3125 75.578125 -75.34375 C 75.003906 -73.382812 74.71875 -70.328125 74.71875 -66.171875 L 74.71875 -14.671875 C 74.71875 -10.515625 75.003906 -7.453125 75.578125 -5.484375 C 76.160156 -3.523438 77.414062 -2.234375 79.34375 -1.609375 L 79.34375 0 L 57.859375 0 L 57.859375 -1.609375 C 59.785156 -2.234375 61.035156 -3.523438 61.609375 -5.484375 C 62.191406 -7.453125 62.484375 -10.515625 62.484375 -14.671875 L 62.484375 -41.8125 L 22.28125 -41.8125 L 22.28125 -14.671875 C 22.28125 -10.515625 22.566406 -7.453125 23.140625 -5.484375 C 23.722656 -3.523438 24.976562 -2.234375 26.90625 -1.609375 L 26.90625 0 Z M 5.421875 0 "/></g></g><g style="fill:#000000;fill-opacity:0.4;"><g transform="translate(88.721051, 95.42358)"><path style="stroke:none" d="M 42.609375 1.15625 C 38.453125 1.15625 34.375 0.617188 30.375 -0.453125 C 26.375 -1.535156 22.753906 -3.328125 19.515625 -5.828125 C 16.285156 -8.328125 13.707031 -11.65625 11.78125 -15.8125 C 9.851562 -19.976562 8.890625 -25.175781 8.890625 -31.40625 L 8.890625 -66.171875 C 8.890625 -70.328125 8.597656 -73.382812 8.015625 -75.34375 C 7.441406 -77.3125 6.191406 -78.601562 4.265625 -79.21875 L 4.265625 -80.84375 L 25.75 -80.84375 L 25.75 -79.21875 C 23.820312 -78.601562 22.570312 -77.3125 22 -75.34375 C 21.425781 -73.382812 21.140625 -70.328125 21.140625 -66.171875 L 21.140625 -30.484375 C 21.140625 -23.484375 22.210938 -17.863281 24.359375 -13.625 C 26.515625 -9.394531 29.554688 -6.332031 33.484375 -4.4375 C 37.410156 -2.550781 41.992188 -1.609375 47.234375 -1.609375 C 49.691406 -1.609375 52.210938 -2.109375 54.796875 -3.109375 C 57.378906 -4.117188 59.785156 -5.757812 62.015625 -8.03125 C 64.242188 -10.300781 66.050781 -13.320312 67.4375 -17.09375 C 68.820312 -20.863281 69.515625 -25.5625 69.515625 -31.1875 L 69.515625 -59.25 C 69.515625 -63.9375 69.207031 -67.628906 68.59375 -70.328125 C 67.976562 -73.023438 67.015625 -75.023438 65.703125 -76.328125 C 64.398438 -77.640625 62.75 -78.601562 60.75 -79.21875 L 60.75 -80.84375 L 76.21875 -80.84375 L 76.21875 -79.21875 C 74.289062 -78.601562 73.035156 -77.3125 72.453125 -75.34375 C 71.878906 -73.382812 71.59375 -70.328125 71.59375 -66.171875 L 71.59375 -31.40625 C 71.59375 -23.707031 70.34375 -17.453125 67.84375 -12.640625 C 65.34375 -7.828125 61.914062 -4.320312 57.5625 -2.125 C 53.21875 0.0625 48.234375 1.15625 42.609375 1.15625 Z M 42.609375 1.15625 "/></g></g><g style="fill:#000000;fill-opacity:0.4;"><g transform="translate(168.059133, 95.42358)"><path style="stroke:none" d="M 4.84375 0 L 4.84375 -1.609375 C 6.769531 -2.234375 8.019531 -3.523438 8.59375 -5.484375 C 9.175781 -7.453125 9.46875 -10.515625 9.46875 -14.671875 L 9.46875 -59.25 C 9.46875 -63.9375 9.175781 -67.628906 8.59375 -70.328125 C 8.019531 -73.023438 7.15625 -75.023438 6 -76.328125 C 4.84375 -77.640625 3.378906 -78.601562 1.609375 -79.21875 L 1.609375 -80.84375 L 18.9375 -80.84375 L 47.46875 -33.484375 L 74.609375 -80.84375 L 91 -80.84375 L 91 -79.21875 C 89.226562 -78.601562 87.765625 -77.640625 86.609375 -76.328125 C 85.453125 -75.023438 84.585938 -73.023438 84.015625 -70.328125 C 83.441406 -67.628906 83.15625 -63.9375 83.15625 -59.25 L 83.15625 -14.671875 C 83.15625 -10.515625 83.441406 -7.453125 84.015625 -5.484375 C 84.585938 -3.523438 85.835938 -2.234375 87.765625 -1.609375 L 87.765625 0 L 66.28125 0 L 66.28125 -1.609375 C 68.207031 -2.234375 69.457031 -3.523438 70.03125 -5.484375 C 70.613281 -7.453125 70.90625 -10.515625 70.90625 -14.671875 L 70.90625 -70.5625 L 43.1875 -21.9375 L 40.53125 -21.9375 L 11.546875 -69.515625 L 11.546875 -21.59375 C 11.546875 -16.894531 11.851562 -13.195312 12.46875 -10.5 C 13.082031 -7.8125 14.046875 -5.8125 15.359375 -4.5 C 16.671875 -3.195312 18.328125 -2.234375 20.328125 -1.609375 L 20.328125 0 Z M 4.84375 0 "/></g></g><g style="fill:#000000;fill-opacity:0.4;"><g transform="translate(264.488959, 95.42358)"><path style="stroke:none" d="M -2.421875 0 L -2.421875 -1.609375 C -0.648438 -2.234375 1.019531 -3.429688 2.59375 -5.203125 C 4.175781 -6.972656 5.738281 -9.78125 7.28125 -13.625 L 28.875 -67.21875 C 29.71875 -69.375 29.640625 -71.453125 28.640625 -73.453125 L 27.140625 -76.6875 L 38.453125 -81.765625 L 67.09375 -13.515625 C 68.707031 -9.742188 70.265625 -6.972656 71.765625 -5.203125 C 73.273438 -3.429688 74.679688 -2.234375 75.984375 -1.609375 L 75.984375 0 L 54.96875 0 L 54.96875 -1.609375 C 56.894531 -2.234375 57.609375 -3.429688 57.109375 -5.203125 C 56.609375 -6.972656 55.550781 -9.742188 53.9375 -13.515625 L 47 -30.140625 L 16.171875 -30.140625 L 9.46875 -13.625 C 7.925781 -9.78125 7.304688 -6.929688 7.609375 -5.078125 C 7.921875 -3.234375 9.039062 -2.078125 10.96875 -1.609375 L 10.96875 0 Z M 16.859375 -31.984375 L 46.1875 -31.984375 L 31.296875 -67.671875 Z M 16.859375 -31.984375 "/></g></g><g style="fill:#000000;fill-opacity:0.4;"><g transform="translate(338.74572, 95.42358)"><path style="stroke:none" d="M 66.28125 0.921875 L 12.125 -67.4375 L 12.125 -21.59375 C 12.125 -16.894531 12.429688 -13.195312 13.046875 -10.5 C 13.660156 -7.8125 14.625 -5.8125 15.9375 -4.5 C 17.25 -3.195312 18.90625 -2.234375 20.90625 -1.609375 L 20.90625 0 L 5.421875 0 L 5.421875 -1.609375 C 7.347656 -2.234375 8.597656 -3.523438 9.171875 -5.484375 C 9.753906 -7.453125 10.046875 -10.515625 10.046875 -14.671875 L 10.046875 -66.171875 C 10.046875 -70.328125 9.660156 -73.382812 8.890625 -75.34375 C 8.117188 -77.3125 6.503906 -78.601562 4.046875 -79.21875 L 4.046875 -80.84375 L 17.09375 -80.84375 L 65.59375 -20.09375 L 65.59375 -59.25 C 65.59375 -63.9375 65.285156 -67.628906 64.671875 -70.328125 C 64.054688 -73.023438 63.09375 -75.023438 61.78125 -76.328125 C 60.476562 -77.640625 58.820312 -78.601562 56.8125 -79.21875 L 56.8125 -80.84375 L 72.40625 -80.84375 L 72.40625 -79.21875 C 70.476562 -78.601562 69.226562 -77.3125 68.65625 -75.34375 C 68.082031 -73.382812 67.796875 -70.328125 67.796875 -66.171875 L 67.796875 0.921875 Z M 66.28125 0.921875 "/></g></g><g style="fill:#000000;fill-opacity:0.4;"><g transform="translate(415.196671, 95.42358)"><path style="stroke:none" d="M 5.421875 0 L 5.421875 -1.609375 C 7.347656 -2.234375 8.597656 -3.523438 9.171875 -5.484375 C 9.753906 -7.453125 10.046875 -10.515625 10.046875 -14.671875 L 10.046875 -66.171875 C 10.046875 -70.328125 9.753906 -73.382812 9.171875 -75.34375 C 8.597656 -77.3125 7.347656 -78.601562 5.421875 -79.21875 L 5.421875 -80.84375 L 26.90625 -80.84375 L 26.90625 -79.21875 C 24.976562 -78.601562 23.722656 -77.3125 23.140625 -75.34375 C 22.566406 -73.382812 22.28125 -70.328125 22.28125 -66.171875 L 22.28125 -14.671875 C 22.28125 -10.515625 22.566406 -7.453125 23.140625 -5.484375 C 23.722656 -3.523438 24.976562 -2.234375 26.90625 -1.609375 L 26.90625 0 Z M 5.421875 0 "/></g></g><g style="fill:#000000;fill-opacity:0.4;"><g transform="translate(447.532412, 95.42358)"><path style="stroke:none" d="M 33.03125 1.15625 C 27.101562 1.15625 21.597656 0.328125 16.515625 -1.328125 C 11.429688 -2.984375 7.425781 -4.890625 4.5 -7.046875 L 4.046875 -24.375 L 5.546875 -24.59375 C 7.160156 -20.207031 9.375 -16.257812 12.1875 -12.75 C 15 -9.25 18.40625 -6.457031 22.40625 -4.375 C 26.40625 -2.300781 30.945312 -1.265625 36.03125 -1.265625 C 38.726562 -1.265625 41.226562 -1.820312 43.53125 -2.9375 C 45.84375 -4.0625 47.726562 -5.703125 49.1875 -7.859375 C 50.65625 -10.015625 51.390625 -12.671875 51.390625 -15.828125 C 51.390625 -18.671875 50.582031 -21.148438 48.96875 -23.265625 C 47.351562 -25.390625 45.289062 -27.238281 42.78125 -28.8125 C 40.28125 -30.394531 37.644531 -31.78125 34.875 -32.96875 C 32.101562 -34.164062 29.5625 -35.222656 27.25 -36.140625 C 23.320312 -37.835938 19.703125 -39.53125 16.390625 -41.21875 C 13.085938 -42.914062 10.429688 -45.09375 8.421875 -47.75 C 6.421875 -50.40625 5.421875 -53.96875 5.421875 -58.4375 C 5.421875 -65.59375 8.097656 -71.25 13.453125 -75.40625 C 18.804688 -79.5625 26.023438 -81.640625 35.109375 -81.640625 C 39.421875 -81.640625 43.441406 -81.21875 47.171875 -80.375 C 50.910156 -79.53125 54.28125 -78.335938 57.28125 -76.796875 L 57.75 -61.78125 L 56.46875 -61.328125 C 54.082031 -67.253906 50.597656 -71.796875 46.015625 -74.953125 C 41.441406 -78.109375 36.34375 -79.6875 30.71875 -79.6875 C 26.101562 -79.6875 22.195312 -78.394531 19 -75.8125 C 15.800781 -73.238281 14.203125 -69.679688 14.203125 -65.140625 C 14.203125 -62.597656 14.835938 -60.378906 16.109375 -58.484375 C 17.378906 -56.597656 19.070312 -54.960938 21.1875 -53.578125 C 23.3125 -52.191406 25.582031 -50.976562 28 -49.9375 C 30.425781 -48.90625 32.796875 -47.925781 35.109375 -47 C 38.035156 -45.84375 41.019531 -44.609375 44.0625 -43.296875 C 47.101562 -41.992188 49.890625 -40.457031 52.421875 -38.6875 C 54.960938 -36.914062 57.003906 -34.796875 58.546875 -32.328125 C 60.085938 -29.867188 60.859375 -26.90625 60.859375 -23.4375 C 60.859375 -19.507812 60.050781 -16.003906 58.4375 -12.921875 C 56.820312 -9.847656 54.664062 -7.269531 51.96875 -5.1875 C 49.269531 -3.113281 46.265625 -1.535156 42.953125 -0.453125 C 39.648438 0.617188 36.34375 1.15625 33.03125 1.15625 Z M 33.03125 1.15625 "/></g></g><g style="fill:#000000;fill-opacity:1;"><g transform="translate(1.301181, 92.769576)"><path style="stroke:none" d="M 5.421875 0 L 5.421875 -1.609375 C 7.347656 -2.234375 8.597656 -3.523438 9.171875 -5.484375 C 9.753906 -7.453125 10.046875 -10.515625 10.046875 -14.671875 L 10.046875 -66.171875 C 10.046875 -70.328125 9.753906 -73.382812 9.171875 -75.34375 C 8.597656 -77.3125 7.347656 -78.601562 5.421875 -79.21875 L 5.421875 -80.84375 L 26.90625 -80.84375 L 26.90625 -79.21875 C 24.976562 -78.601562 23.722656 -77.3125 23.140625 -75.34375 C 22.566406 -73.382812 22.28125 -70.328125 22.28125 -66.171875 L 22.28125 -43.890625 L 62.484375 -43.890625 L 62.484375 -66.171875 C 62.484375 -70.328125 62.191406 -73.382812 61.609375 -75.34375 C 61.035156 -77.3125 59.785156 -78.601562 57.859375 -79.21875 L 57.859375 -80.84375 L 79.34375 -80.84375 L 79.34375 -79.21875 C 77.414062 -78.601562 76.160156 -77.3125 75.578125 -75.34375 C 75.003906 -73.382812 74.71875 -70.328125 74.71875 -66.171875 L 74.71875 -14.671875 C 74.71875 -10.515625 75.003906 -7.453125 75.578125 -5.484375 C 76.160156 -3.523438 77.414062 -2.234375 79.34375 -1.609375 L 79.34375 0 L 57.859375 0 L 57.859375 -1.609375 C 59.785156 -2.234375 61.035156 -3.523438 61.609375 -5.484375 C 62.191406 -7.453125 62.484375 -10.515625 62.484375 -14.671875 L 62.484375 -41.8125 L 22.28125 -41.8125 L 22.28125 -14.671875 C 22.28125 -10.515625 22.566406 -7.453125 23.140625 -5.484375 C 23.722656 -3.523438 24.976562 -2.234375 26.90625 -1.609375 L 26.90625 0 Z M 5.421875 0 "/></g></g><g style="fill:#000000;fill-opacity:1;"><g transform="translate(86.067047, 92.769576)"><path style="stroke:none" d="M 42.609375 1.15625 C 38.453125 1.15625 34.375 0.617188 30.375 -0.453125 C 26.375 -1.535156 22.753906 -3.328125 19.515625 -5.828125 C 16.285156 -8.328125 13.707031 -11.65625 11.78125 -15.8125 C 9.851562 -19.976562 8.890625 -25.175781 8.890625 -31.40625 L 8.890625 -66.171875 C 8.890625 -70.328125 8.597656 -73.382812 8.015625 -75.34375 C 7.441406 -77.3125 6.191406 -78.601562 4.265625 -79.21875 L 4.265625 -80.84375 L 25.75 -80.84375 L 25.75 -79.21875 C 23.820312 -78.601562 22.570312 -77.3125 22 -75.34375 C 21.425781 -73.382812 21.140625 -70.328125 21.140625 -66.171875 L 21.140625 -30.484375 C 21.140625 -23.484375 22.210938 -17.863281 24.359375 -13.625 C 26.515625 -9.394531 29.554688 -6.332031 33.484375 -4.4375 C 37.410156 -2.550781 41.992188 -1.609375 47.234375 -1.609375 C 49.691406 -1.609375 52.210938 -2.109375 54.796875 -3.109375 C 57.378906 -4.117188 59.785156 -5.757812 62.015625 -8.03125 C 64.242188 -10.300781 66.050781 -13.320312 67.4375 -17.09375 C 68.820312 -20.863281 69.515625 -25.5625 69.515625 -31.1875 L 69.515625 -59.25 C 69.515625 -63.9375 69.207031 -67.628906 68.59375 -70.328125 C 67.976562 -73.023438 67.015625 -75.023438 65.703125 -76.328125 C 64.398438 -77.640625 62.75 -78.601562 60.75 -79.21875 L 60.75 -80.84375 L 76.21875 -80.84375 L 76.21875 -79.21875 C 74.289062 -78.601562 73.035156 -77.3125 72.453125 -75.34375 C 71.878906 -73.382812 71.59375 -70.328125 71.59375 -66.171875 L 71.59375 -31.40625 C 71.59375 -23.707031 70.34375 -17.453125 67.84375 -12.640625 C 65.34375 -7.828125 61.914062 -4.320312 57.5625 -2.125 C 53.21875 0.0625 48.234375 1.15625 42.609375 1.15625 Z M 42.609375 1.15625 "/></g></g><g style="fill:#000000;fill-opacity:1;"><g transform="translate(165.405129, 92.769576)"><path style="stroke:none" d="M 4.84375 0 L 4.84375 -1.609375 C 6.769531 -2.234375 8.019531 -3.523438 8.59375 -5.484375 C 9.175781 -7.453125 9.46875 -10.515625 9.46875 -14.671875 L 9.46875 -59.25 C 9.46875 -63.9375 9.175781 -67.628906 8.59375 -70.328125 C 8.019531 -73.023438 7.15625 -75.023438 6 -76.328125 C 4.84375 -77.640625 3.378906 -78.601562 1.609375 -79.21875 L 1.609375 -80.84375 L 18.9375 -80.84375 L 47.46875 -33.484375 L 74.609375 -80.84375 L 91 -80.84375 L 91 -79.21875 C 89.226562 -78.601562 87.765625 -77.640625 86.609375 -76.328125 C 85.453125 -75.023438 84.585938 -73.023438 84.015625 -70.328125 C 83.441406 -67.628906 83.15625 -63.9375 83.15625 -59.25 L 83.15625 -14.671875 C 83.15625 -10.515625 83.441406 -7.453125 84.015625 -5.484375 C 84.585938 -3.523438 85.835938 -2.234375 87.765625 -1.609375 L 87.765625 0 L 66.28125 0 L 66.28125 -1.609375 C 68.207031 -2.234375 69.457031 -3.523438 70.03125 -5.484375 C 70.613281 -7.453125 70.90625 -10.515625 70.90625 -14.671875 L 70.90625 -70.5625 L 43.1875 -21.9375 L 40.53125 -21.9375 L 11.546875 -69.515625 L 11.546875 -21.59375 C 11.546875 -16.894531 11.851562 -13.195312 12.46875 -10.5 C 13.082031 -7.8125 14.046875 -5.8125 15.359375 -4.5 C 16.671875 -3.195312 18.328125 -2.234375 20.328125 -1.609375 L 20.328125 0 Z M 4.84375 0 "/></g></g><g style="fill:#000000;fill-opacity:1;"><g transform="translate(261.834955, 92.769576)"><path style="stroke:none" d="M -2.421875 0 L -2.421875 -1.609375 C -0.648438 -2.234375 1.019531 -3.429688 2.59375 -5.203125 C 4.175781 -6.972656 5.738281 -9.78125 7.28125 -13.625 L 28.875 -67.21875 C 29.71875 -69.375 29.640625 -71.453125 28.640625 -73.453125 L 27.140625 -76.6875 L 38.453125 -81.765625 L 67.09375 -13.515625 C 68.707031 -9.742188 70.265625 -6.972656 71.765625 -5.203125 C 73.273438 -3.429688 74.679688 -2.234375 75.984375 -1.609375 L 75.984375 0 L 54.96875 0 L 54.96875 -1.609375 C 56.894531 -2.234375 57.609375 -3.429688 57.109375 -5.203125 C 56.609375 -6.972656 55.550781 -9.742188 53.9375 -13.515625 L 47 -30.140625 L 16.171875 -30.140625 L 9.46875 -13.625 C 7.925781 -9.78125 7.304688 -6.929688 7.609375 -5.078125 C 7.921875 -3.234375 9.039062 -2.078125 10.96875 -1.609375 L 10.96875 0 Z M 16.859375 -31.984375 L 46.1875 -31.984375 L 31.296875 -67.671875 Z M 16.859375 -31.984375 "/></g></g><g style="fill:#000000;fill-opacity:1;"><g transform="translate(336.091716, 92.769576)"><path style="stroke:none" d="M 66.28125 0.921875 L 12.125 -67.4375 L 12.125 -21.59375 C 12.125 -16.894531 12.429688 -13.195312 13.046875 -10.5 C 13.660156 -7.8125 14.625 -5.8125 15.9375 -4.5 C 17.25 -3.195312 18.90625 -2.234375 20.90625 -1.609375 L 20.90625 0 L 5.421875 0 L 5.421875 -1.609375 C 7.347656 -2.234375 8.597656 -3.523438 9.171875 -5.484375 C 9.753906 -7.453125 10.046875 -10.515625 10.046875 -14.671875 L 10.046875 -66.171875 C 10.046875 -70.328125 9.660156 -73.382812 8.890625 -75.34375 C 8.117188 -77.3125 6.503906 -78.601562 4.046875 -79.21875 L 4.046875 -80.84375 L 17.09375 -80.84375 L 65.59375 -20.09375 L 65.59375 -59.25 C 65.59375 -63.9375 65.285156 -67.628906 64.671875 -70.328125 C 64.054688 -73.023438 63.09375 -75.023438 61.78125 -76.328125 C 60.476562 -77.640625 58.820312 -78.601562 56.8125 -79.21875 L 56.8125 -80.84375 L 72.40625 -80.84375 L 72.40625 -79.21875 C 70.476562 -78.601562 69.226562 -77.3125 68.65625 -75.34375 C 68.082031 -73.382812 67.796875 -70.328125 67.796875 -66.171875 L 67.796875 0.921875 Z M 66.28125 0.921875 "/></g></g><g style="fill:#000000;fill-opacity:1;"><g transform="translate(412.542667, 92.769576)"><path style="stroke:none" d="M 5.421875 0 L 5.421875 -1.609375 C 7.347656 -2.234375 8.597656 -3.523438 9.171875 -5.484375 C 9.753906 -7.453125 10.046875 -10.515625 10.046875 -14.671875 L 10.046875 -66.171875 C 10.046875 -70.328125 9.753906 -73.382812 9.171875 -75.34375 C 8.597656 -77.3125 7.347656 -78.601562 5.421875 -79.21875 L 5.421875 -80.84375 L 26.90625 -80.84375 L 26.90625 -79.21875 C 24.976562 -78.601562 23.722656 -77.3125 23.140625 -75.34375 C 22.566406 -73.382812 22.28125 -70.328125 22.28125 -66.171875 L 22.28125 -14.671875 C 22.28125 -10.515625 22.566406 -7.453125 23.140625 -5.484375 C 23.722656 -3.523438 24.976562 -2.234375 26.90625 -1.609375 L 26.90625 0 Z M 5.421875 0 "/></g></g><g style="fill:#000000;fill-opacity:1;"><g transform="translate(444.878408, 92.769576)"><path style="stroke:none" d="M 33.03125 1.15625 C 27.101562 1.15625 21.597656 0.328125 16.515625 -1.328125 C 11.429688 -2.984375 7.425781 -4.890625 4.5 -7.046875 L 4.046875 -24.375 L 5.546875 -24.59375 C 7.160156 -20.207031 9.375 -16.257812 12.1875 -12.75 C 15 -9.25 18.40625 -6.457031 22.40625 -4.375 C 26.40625 -2.300781 30.945312 -1.265625 36.03125 -1.265625 C 38.726562 -1.265625 41.226562 -1.820312 43.53125 -2.9375 C 45.84375 -4.0625 47.726562 -5.703125 49.1875 -7.859375 C 50.65625 -10.015625 51.390625 -12.671875 51.390625 -15.828125 C 51.390625 -18.671875 50.582031 -21.148438 48.96875 -23.265625 C 47.351562 -25.390625 45.289062 -27.238281 42.78125 -28.8125 C 40.28125 -30.394531 37.644531 -31.78125 34.875 -32.96875 C 32.101562 -34.164062 29.5625 -35.222656 27.25 -36.140625 C 23.320312 -37.835938 19.703125 -39.53125 16.390625 -41.21875 C 13.085938 -42.914062 10.429688 -45.09375 8.421875 -47.75 C 6.421875 -50.40625 5.421875 -53.96875 5.421875 -58.4375 C 5.421875 -65.59375 8.097656 -71.25 13.453125 -75.40625 C 18.804688 -79.5625 26.023438 -81.640625 35.109375 -81.640625 C 39.421875 -81.640625 43.441406 -81.21875 47.171875 -80.375 C 50.910156 -79.53125 54.28125 -78.335938 57.28125 -76.796875 L 57.75 -61.78125 L 56.46875 -61.328125 C 54.082031 -67.253906 50.597656 -71.796875 46.015625 -74.953125 C 41.441406 -78.109375 36.34375 -79.6875 30.71875 -79.6875 C 26.101562 -79.6875 22.195312 -78.394531 19 -75.8125 C 15.800781 -73.238281 14.203125 -69.679688 14.203125 -65.140625 C 14.203125 -62.597656 14.835938 -60.378906 16.109375 -58.484375 C 17.378906 -56.597656 19.070312 -54.960938 21.1875 -53.578125 C 23.3125 -52.191406 25.582031 -50.976562 28 -49.9375 C 30.425781 -48.90625 32.796875 -47.925781 35.109375 -47 C 38.035156 -45.84375 41.019531 -44.609375 44.0625 -43.296875 C 47.101562 -41.992188 49.890625 -40.457031 52.421875 -38.6875 C 54.960938 -36.914062 57.003906 -34.796875 58.546875 -32.328125 C 60.085938 -29.867188 60.859375 -26.90625 60.859375 -23.4375 C 60.859375 -19.507812 60.050781 -16.003906 58.4375 -12.921875 C 56.820312 -9.847656 54.664062 -7.269531 51.96875 -5.1875 C 49.269531 -3.113281 46.265625 -1.535156 42.953125 -0.453125 C 39.648438 0.617188 36.34375 1.15625 33.03125 1.15625 Z M 33.03125 1.15625 "/></g></g></g></g></g></svg>